<svg xmlns="http://www.w3.org/2000/svg" version="1.1" xmlns:xlink="http://www.w3.org/1999/xlink" xmlns:svgjs="http://svgjs.dev/svgjs" width="1920" height="1080" preserveAspectRatio="none" viewBox="0 0 1920 1080"><g mask="url(&quot;#SvgjsMask2618&quot;)" fill="none"><path d="M1920 0L1650.56 0L1920 404.09z" fill="rgba(255, 255, 255, .1)"></path><path d="M1650.56 0L1920 404.09L1920 672.67L1411.79 0z" fill="rgba(255, 255, 255, .075)"></path><path d="M1411.79 0L1920 672.67L1920 756.2099999999999L1362.37 0z" fill="rgba(255, 255, 255, .05)"></path><path d="M1362.37 0L1920 756.2099999999999L1920 946.9799999999999L731.56 0z" fill="rgba(255, 255, 255, .025)"></path><path d="M0 1080L513.07 1080L0 564.47z" fill="rgba(0, 0, 0, .1)"></path><path d="M0 564.47L513.07 1080L782.8100000000001 1080L0 519.3000000000001z" fill="rgba(0, 0, 0, .075)"></path><path d="M0 519.3000000000001L782.8100000000001 1080L1140.74 1080L0 505.0400000000001z" fill="rgba(0, 0, 0, .05)"></path><path d="M0 505.0400000000001L1140.74 1080L1600.21 1080L0 336.3900000000001z" fill="rgba(0, 0, 0, .025)"></path></g><defs><mask id="SvgjsMask2618"><rect width="1920" height="1080" fill="#ffffff"></rect></mask></defs></svg>