<?xml version="1.0" encoding="UTF-8" standalone="no"?>
<svg
        width="24"
        height="24"
        viewBox="0 0 24 24"
        version="1.1"
        id="svg2"
        sodipodi:docname="car_top_down.svg"
        inkscape:version="1.4 (e7c3feb100, 2024-10-09)"
        xml:space="preserve"
        xmlns:inkscape="http://www.inkscape.org/namespaces/inkscape"
        xmlns:sodipodi="http://sodipodi.sourceforge.net/DTD/sodipodi-0.dtd"
        xmlns="http://www.w3.org/2000/svg"
        xmlns:svg="http://www.w3.org/2000/svg"><defs
     id="defs2" /><sodipodi:namedview
        id="namedview2"
        pagecolor="#ffffff"
        bordercolor="#000000"
        borderopacity="0.25"
        inkscape:showpageshadow="2"
        inkscape:pageopacity="0.0"
        inkscape:pagecheckerboard="0"
        inkscape:deskcolor="#d1d1d1"
        inkscape:zoom="13.777977"
        inkscape:cx="3.8830083"
        inkscape:cy="9.3627676"
        inkscape:window-width="1181"
        inkscape:window-height="761"
        inkscape:window-x="20"
        inkscape:window-y="20"
        inkscape:window-maximized="0"
        inkscape:current-layer="g2" /><g
        fill="none"
        fill-rule="evenodd"
        id="g2"
        style="display:inline"><path
       fill="currentColor"
       fill-rule="nonzero"
       d="m 12.016624,2 c 1.751,0 3.19,0.592 4.168,1.159 1.324,0.767 1.832,2.21 1.832,3.498 v 1.71 c 0.907108,0.5700368 1.78303,1.1882559 2.624,1.852 0.993971,0.836986 -0.212258,2.346706 -1.248,1.562 -0.447459,-0.352312 -0.906374,-0.689828 -1.376,-1.012 v 6.817 c 0,2.437785 -1.976215,4.414 -4.414,4.414 h -3.172 C 7.9928393,22 6.0166242,20.023785 6.0166242,17.586 v -6.817 c -0.467,0.324 -0.93,0.657 -1.375,1.012 -1.0412718,0.832784 -2.2912718,-0.729216 -1.25,-1.562 0.8413186,-0.6634323 1.7175742,-1.2813177 2.625,-1.851 V 6.657 c 0,-1.289 0.508,-2.731 1.832,-3.498 C 8.8266242,2.592 10.266624,2 12.016624,2"
       id="path2"
       style="display:inline;fill:#101418;fill-opacity:1;stroke:none;stroke-width:1;stroke-dasharray:none;stroke-opacity:1"
       sodipodi:nodetypes="ccsccccssssccccscc"
       inkscape:label="path2" /><path
        fill="currentColor"
        fill-rule="nonzero"
        d="m 12.016624,2 c 1.751,0 3.19,0.592 4.168,1.159 1.324,0.767 1.832,2.21 1.832,3.498 v 1.71 c 0.907108,0.5700368 1.78303,1.1882559 2.624,1.852 0.993971,0.836986 -0.212258,2.346706 -1.248,1.562 -0.447459,-0.352312 -0.906374,-0.689828 -1.376,-1.012 v 6.817 c 0,2.437785 -1.976215,4.414 -4.414,4.414 h -3.172 C 7.9928394,22 6.0166244,20.023785 6.0166244,17.586 v -6.817 c -0.467,0.324 -0.93,0.657 -1.375,1.012 -1.041272,0.832784 -2.291272,-0.729216 -1.25,-1.562 0.841319,-0.6634323 1.717574,-1.2813177 2.625,-1.851 V 6.657 c 0,-1.289 0.508,-2.731 1.832,-3.498 C 8.8266244,2.592 10.266624,2 12.016624,2 m 0,2 c -1.297,0 -2.3899996,0.44 -3.1649996,0.89 -0.512,0.295 -0.835,0.933 -0.835,1.766 v 0.56 c 0.361,-0.185 0.729,-0.359 1.096,-0.514 C 10.050624,6.308 11.070624,6 12.016624,6 c 0.946,0 1.966,0.308 2.904,0.703 0.367,0.155 0.735,0.329 1.096,0.513 v -0.56 c 0,-0.832 -0.323,-1.47 -0.835,-1.767 C 14.406624,4.44 13.313624,4 12.016624,4"
        id="path2-6"
        style="display:inline;fill:#536375;fill-opacity:1;stroke:none;stroke-width:1;stroke-dasharray:none;stroke-opacity:1"
        sodipodi:nodetypes="ccsccccssssccccsccccsccsccscc"
        inkscape:label="path2" /><g
        style="display:none;fill:none"
        id="g1"
        transform="translate(-660.635,-322.1045)"
        inkscape:label="Agent"><path
         d="m 699.523,350.575 v -36.941 c 0,-6.306 -5.112,-11.418 -11.417,-11.418 h -36.942 c -6.306,0 -11.417,5.112 -11.417,11.418 v 36.941 c 0,6.306 5.111,11.418 11.417,11.418 h 36.942 c 6.305,0 11.417,-5.112 11.417,-11.418 z"
         fill="#536375"
         stroke="#262e38"
         stroke-width="1.2"
         stroke-miterlimit="10"
         id="path113"
         style="display:inline;fill:#1e2022;fill-opacity:1;stroke-width:4.53543;stroke-dasharray:none"
         sodipodi:insensitive="true" /><g
        id="g6"
        transform="translate(-2.1018087,-4.4838585)"><path
           fill="currentColor"
           d="m 651.46334,357.22861 v -36.47037 c 0,-1.25367 0.44676,-2.3265 1.34028,-3.2185 0.89353,-0.89201 1.96636,-1.33877 3.2185,-1.34028 h 13.67642 c 1.25367,0 2.32727,0.44676 3.22079,1.34028 0.89352,0.89353 1.33952,1.96636 1.33801,3.2185 v 15.9558 h 2.84924 c 1.10171,0 2.04234,0.38978 2.82189,1.16933 0.77956,0.77955 1.16858,1.71942 1.16706,2.81961 v 10.54221 c 0,0.64583 0.26593,1.23468 0.79779,1.76654 0.53186,0.53185 1.1207,0.79778 1.76653,0.79778 0.68382,0 1.28254,-0.26593 1.79616,-0.79778 0.51363,-0.53186 0.76969,-1.12071 0.76816,-1.76654 v -21.36935 h -0.56985 c -0.64583,0 -1.1868,-0.21882 -1.62292,-0.65646 -0.43613,-0.43765 -0.65496,-0.97863 -0.65648,-1.62294 v -4.55879 h 1.13971 v -3.41909 h 2.2794 v 3.41909 h 2.27939 v -3.41909 h 2.27941 v 3.41909 h 1.13968 v 4.55879 c 0,0.64583 -0.21882,1.18757 -0.65645,1.62521 -0.43765,0.43765 -0.97863,0.65571 -1.62294,0.65419 h -0.56985 v 21.36935 c 0,1.59558 -0.57973,2.99209 -1.73918,4.18954 -1.15945,1.19745 -2.57344,1.79541 -4.24196,1.79388 -1.63356,0 -3.03919,-0.59872 -4.2169,-1.79616 -1.17768,-1.19744 -1.76652,-2.59319 -1.76652,-4.18726 v -10.54221 c 0,-0.18995 -0.0471,-0.33204 -0.14132,-0.42625 -0.0942,-0.0942 -0.23706,-0.14208 -0.42853,-0.14359 h -2.85152 v 17.09547 z"
           id="path1-2"
           style="display:inline;fill:#101418;fill-opacity:1;stroke:#262e38;stroke-width:2.40378;stroke-linecap:butt;stroke-linejoin:miter;stroke-dasharray:none;stroke-opacity:1;paint-order:normal"
           inkscape:label="Station"
           sodipodi:nodetypes="csscssccsscssssccsscccccccccccssccssccssscccc"
           transform="translate(-3.1496062e-6)" /><path
        fill="currentColor"
        d="m 655.93753,332.12014 h 13.67642 v -11.397 h -13.67642 z m -4.55878,25.07337 v -36.47037 q 0,-1.8805 1.34028,-3.2185 1.34029,-1.33801 3.2185,-1.34028 h 13.67642 q 1.88051,0 3.22079,1.34028 1.34028,1.34029 1.33801,3.2185 v 15.9558 h 2.84924 q 1.65257,0 2.82189,1.16933 1.16934,1.16933 1.16706,2.81961 v 10.54221 q 0,0.96875 0.79779,1.76654 0.79779,0.79778 1.76653,0.79778 1.02573,0 1.79616,-0.79778 0.77045,-0.79779 0.76816,-1.76654 v -21.36935 h -0.56985 q -0.96874,0 -1.62292,-0.65646 -0.6542,-0.65648 -0.65648,-1.62294 v -4.55879 h 1.13971 v -3.41909 h 2.2794 v 3.41909 h 2.27939 v -3.41909 h 2.27941 v 3.41909 h 1.13968 v 4.55879 q 0,0.96875 -0.65645,1.62521 -0.65648,0.65647 -1.62294,0.65419 h -0.56985 v 21.36935 q 0,2.39337 -1.73918,4.18954 -1.73918,1.79617 -4.24196,1.79388 -2.45034,0 -4.2169,-1.79616 -1.76652,-1.79616 -1.76652,-4.18726 v -10.54221 q 0,-0.28493 -0.14132,-0.42625 -0.14132,-0.14132 -0.42853,-0.14359 h -2.85152 v 17.09547 z m 10.25729,-4.55879 5.69851,-9.11759 h -3.41909 v -6.83819 l -5.69852,9.11759 h 3.4191 z"
        id="path1"
        style="display:inline;fill:#536375;fill-opacity:1;stroke:#262e38;stroke-width:0;stroke-linejoin:miter;stroke-dasharray:none;stroke-opacity:1;paint-order:normal"
        inkscape:label="Station"
        transform="translate(-3.1496062e-6)" /></g></g></g></svg>
