<?xml version="1.0" encoding="UTF-8" standalone="no"?>
<!-- Created with Inkscape (http://www.inkscape.org/) -->

<svg
   width="17.015732mm"
   height="17.015997mm"
   viewBox="0 0 17.015732 17.015997"
   version="1.1"
   id="svg1"
   xml:space="preserve"
   inkscape:version="1.4 (e7c3feb100, 2024-10-09)"
   sodipodi:docname="registry_body.svg"
   xmlns:inkscape="http://www.inkscape.org/namespaces/inkscape"
   xmlns:sodipodi="http://sodipodi.sourceforge.net/DTD/sodipodi-0.dtd"
   xmlns="http://www.w3.org/2000/svg"
   xmlns:svg="http://www.w3.org/2000/svg"><sodipodi:namedview
     id="namedview1"
     pagecolor="#ffffff"
     bordercolor="#000000"
     borderopacity="0.25"
     inkscape:showpageshadow="2"
     inkscape:pageopacity="0.0"
     inkscape:pagecheckerboard="0"
     inkscape:deskcolor="#d1d1d1"
     inkscape:document-units="mm"
     inkscape:zoom="7.1367105"
     inkscape:cx="1.8215675"
     inkscape:cy="47.150574"
     inkscape:window-width="1920"
     inkscape:window-height="1014"
     inkscape:window-x="0"
     inkscape:window-y="0"
     inkscape:window-maximized="1"
     inkscape:current-layer="g1" /><defs
     id="defs1" /><g
     inkscape:label="Layer 1"
     inkscape:groupmode="layer"
     id="layer1"
     transform="translate(-62.716202,-138.23174)"><g
       style="display:inline;fill:none"
       id="g1"
       transform="matrix(0.26458333,0,0,0.26458333,-105.95019,58.870421)"
       inkscape:label="Agent"><path
         d="m 699.523,350.575 v -36.941 c 0,-6.306 -5.112,-11.418 -11.417,-11.418 h -36.942 c -6.306,0 -11.417,5.112 -11.417,11.418 v 36.941 c 0,6.306 5.111,11.418 11.417,11.418 h 36.942 c 6.305,0 11.417,-5.112 11.417,-11.418 z"
         fill="#536375"
         stroke="#262e38"
         stroke-width="1.2"
         stroke-miterlimit="10"
         id="path113"
         style="display:inline;fill:#1e2022;fill-opacity:1;stroke-width:4.53543;stroke-dasharray:none" /><path
         fill="currentColor"
         fill-rule="evenodd"
         d="m 670.75194,316.08681 c -5.58174,0 -10.07557,4.46539 -10.07557,9.93956 0,0.93773 0.13194,1.84502 0.3755,2.70155 1.00878,0.29229 1.95462,0.7307 2.80711,1.29903 a 1.5222922,1.5222922 0 1 1 -1.67858,2.53716 7.1852188,7.1852188 0 0 0 -3.99246,-1.19551 c -3.9803,0 -7.17711,3.18667 -7.17711,7.07562 0,3.88893 3.19681,7.07358 7.17711,7.07358 h 20.29724 c 5.58174,0 10.07554,-4.46539 10.07554,-9.93956 0,-4.33752 -2.82131,-8.04176 -6.77522,-9.39355 a 10.148614,10.148614 0 0 0 -3.30032,-0.54803 c -1.18332,0 -2.31387,0.20297 -3.36528,0.56832 a 1.5222922,1.5222922 0 0 1 -1.00268,-2.87408 13.193198,13.193198 0 0 1 6.13788,-0.61907 10.067426,10.067426 0 0 0 -9.50316,-6.62502 m 12.89889,7.55261 c -1.13462,-6.04249 -6.48903,-10.59719 -12.89889,-10.59719 -7.2299,0 -13.12015,5.79689 -13.12015,12.98414 q 0,1.1813 0.20703,2.30374 c -5.46807,0.18266 -9.87257,4.62371 -9.87257,10.11411 0,5.60405 4.59326,10.11816 10.22169,10.11816 h 20.29724 c 7.22784,0 13.12013,-5.79689 13.12013,-12.98414 0,-5.36659 -3.28612,-9.95579 -7.95448,-11.93882"
         clip-rule="evenodd"
         id="path1-5"
         style="display:none;stroke-width:1.2737;stroke-dasharray:none" /><g
         id="g2"
         inkscape:label="Cloud"
         transform="matrix(1.1344815,0,0,1.1344815,-89.844964,-39.059594)"><path
           fill="#ffffff"
           d="m 688.96497,333.32213 a 6.0900001,6.0900001 0 0 0 -3.65,-5.58 6.7000001,6.7000001 0 0 0 0.23,-1.74 6.8300001,6.8300001 0 0 0 -6.85,-6.83 6.7000001,6.7000001 0 0 0 -2.58,0.51 10.18,10.18 0 0 0 -20.21,1.71 v 0.7 a 9.0000001,9.0000001 0 0 0 3.53,17.32 h 23.47 a 6.0900001,6.0900001 0 0 0 6.06,-6.09"
           id="path2"
           style="stroke-width:0;stroke-dasharray:none;fill:#536375;fill-opacity:1" /><path
           fill="none"
           stroke="#45413c"
           stroke-linecap="round"
           stroke-linejoin="round"
           d="m 688.96497,333.32213 a 6.0900001,6.0900001 0 0 0 -3.65,-5.58 6.7000001,6.7000001 0 0 0 0.23,-1.74 6.8300001,6.8300001 0 0 0 -6.85,-6.83 6.7000001,6.7000001 0 0 0 -2.58,0.51 10.18,10.18 0 0 0 -20.21,1.71 v 0.7 a 9.0000001,9.0000001 0 0 0 3.53,17.32 h 23.47 a 6.0900001,6.0900001 0 0 0 6.06,-6.09"
           stroke-width="2"
           id="path4"
           style="stroke-width:1.05941769;stroke-dasharray:none;stroke:#262e38;stroke-opacity:1" /><path
           fill="none"
           stroke="#45413c"
           stroke-linecap="round"
           stroke-linejoin="round"
           d="m 676.14497,319.68213 a 7.6300001,7.6300001 0 0 0 -4.12,6.49"
           stroke-width="2"
           id="path5"
           style="stroke-width:1.05941769;stroke-dasharray:none;stroke:#262e38;stroke-opacity:1" /></g></g></g></svg>
